<svg width="23" height="23" viewBox="0 0 23 23" fill="none" xmlns="http://www.w3.org/2000/svg">
<circle cx="11.5" cy="11.5" r="11.5" fill="#388067"/>
<path d="M9.19718 6.97708L9.1972 6.97706C9.09369 6.86989 9.03641 6.72635 9.03771 6.57736C9.039 6.42837 9.09876 6.28585 9.20412 6.1805C9.30947 6.07514 9.45199 6.01538 9.60099 6.01408C9.74998 6.01279 9.89351 6.07006 10.0007 6.17357L10.0026 6.17538L10.0025 6.1754L15.158 11.3309L15.158 11.3309C15.2646 11.4375 15.3244 11.582 15.3244 11.7326C15.3244 11.8833 15.2646 12.0278 15.158 12.1344L15.158 12.1344L10.0025 17.2899L10.0025 17.2899C9.94972 17.3427 9.88705 17.3845 9.81809 17.4131L9.76074 17.2745L9.81808 17.4131C9.74913 17.4416 9.67523 17.4563 9.60061 17.4562L9.19718 6.97708ZM9.19718 6.97708L9.19902 6.97892M9.19718 6.97708L9.19902 6.97892M9.19902 6.97892L13.9526 11.7325L9.19906 16.4861C9.11956 16.5655 9.06541 16.6667 9.04345 16.777C9.02149 16.8872 9.03271 17.0015 9.07569 17.1053C9.11867 17.2091 9.19149 17.2979 9.28492 17.3604C9.37835 17.4228 9.4882 17.4562 9.60058 17.4562L9.19902 6.97892Z" fill="white" stroke="white" stroke-width="0.3"/>
</svg>
