<svg width="14" height="14" viewBox="0 0 14 14" fill="none" xmlns="http://www.w3.org/2000/svg">
<path d="M7.70672 4.40715L8.65005 5.35048C9.08344 5.78383 9.42723 6.2983 9.66178 6.86451C9.89633 7.43073 10.0171 8.03761 10.0171 8.65048C10.0171 9.26336 9.89633 9.87023 9.66178 10.4364C9.42723 11.0027 9.08344 11.5171 8.65005 11.9505L8.41405 12.1858C7.53883 13.061 6.35179 13.5527 5.11405 13.5527C3.87631 13.5527 2.68926 13.061 1.81405 12.1858C0.938834 11.3106 0.447144 10.1236 0.447144 8.88581C0.447144 7.64807 0.938834 6.46103 1.81405 5.58581L2.75738 6.52915C2.44563 6.83818 2.19798 7.20575 2.02867 7.61075C1.85935 8.01575 1.7717 8.4502 1.77073 8.88917C1.76977 9.32814 1.85552 9.76297 2.02307 10.1687C2.19061 10.5744 2.43664 10.9431 2.74704 11.2535C3.05743 11.5639 3.42608 11.8099 3.83182 11.9775C4.23756 12.145 4.67239 12.2308 5.11136 12.2298C5.55032 12.2288 5.98478 12.1412 6.38978 11.9719C6.79478 11.8025 7.16235 11.5549 7.47138 11.2431L7.70738 11.0071C8.33229 10.3821 8.68334 9.53436 8.68334 8.65048C8.68334 7.7666 8.33229 6.91891 7.70738 6.29381L6.76405 5.35048L7.70738 4.40781L7.70672 4.40715ZM12.1854 8.41448L11.2427 7.47181C11.5545 7.16278 11.8021 6.79521 11.9714 6.39021C12.1407 5.98521 12.2284 5.55076 12.2294 5.11179C12.2303 4.67282 12.1446 4.23799 11.977 3.83225C11.8095 3.42652 11.5635 3.05787 11.2531 2.74747C10.9427 2.43707 10.574 2.19104 10.1683 2.0235C9.76254 1.85596 9.32771 1.7702 8.88874 1.77117C8.44977 1.77213 8.01532 1.85978 7.61032 2.0291C7.20532 2.19842 6.83775 2.44606 6.52872 2.75781L6.29272 2.99381C5.66781 3.61891 5.31676 4.4666 5.31676 5.35048C5.31676 6.23436 5.66781 7.08205 6.29272 7.70715L7.23605 8.65048L6.29272 9.59315L5.35005 8.65048C4.91666 8.21713 4.57287 7.70266 4.33832 7.13645C4.10377 6.57023 3.98305 5.96336 3.98305 5.35048C3.98305 4.7376 4.10377 4.13073 4.33832 3.56451C4.57287 2.9983 4.91666 2.48383 5.35005 2.05048L5.58605 1.81515C6.46126 0.939933 7.64831 0.448242 8.88605 0.448242C10.1238 0.448242 11.3108 0.939933 12.186 1.81515C13.0613 2.69036 13.553 3.87741 13.553 5.11515C13.553 6.35289 13.0613 7.53993 12.186 8.41515L12.1854 8.41448Z" fill="#0C2F4B"/>
</svg>
