<svg width="173" height="45" viewBox="0 0 173 45" fill="none" xmlns="http://www.w3.org/2000/svg">
<mask id="mask0" mask-type="alpha" maskUnits="userSpaceOnUse" x="0" y="0" width="173" height="45">
<path d="M23.6073 27.6189C23.4797 27.727 24.1097 27.8904 23.7886 28.014C23.4667 28.1368 23.2837 28.6075 23.2837 28.6075C23.2837 28.6075 22.2471 28.2221 22.4618 28.0261C22.6065 27.892 21.778 27.1701 21.8667 27.0213C21.9634 26.8595 23.0561 27.1554 23.0902 27.3725C23.1081 27.4888 23.7163 27.5261 23.6073 27.6189L23.6073 27.6189ZM27.7941 28.6944L27.4689 27.7644C27.3527 27.4066 27.2291 27.0652 27.6145 26.6937C27.9429 26.3757 28.3966 26.379 28.6974 26.5985C29.2364 26.9896 29.0697 27.8457 28.647 28.4213C28.647 28.4213 28.7892 28.544 28.7218 28.6807C28.6323 28.8611 28.4714 29.2936 28.2982 29.3644C28.1267 29.4343 27.9251 29.7269 27.8885 29.8709C27.7925 30.2538 27.96 29.157 27.7942 28.6945L27.7941 28.6944ZM29.0966 25.6318C29.3494 25.8839 30.0267 25.7563 30.3624 25.7148C30.699 25.6726 30.6494 26.1733 30.6218 26.4921C30.5925 26.8294 30.1177 27.1977 30.1177 27.1977L29.96 27.0839C29.8243 27.2059 29.6812 27.1863 29.5836 27.1148C29.5137 27.0644 29.4568 26.992 29.43 26.9294C29.3202 26.6928 29.0682 26.4465 28.9406 26.3546C28.6674 26.1555 28.343 26.0579 28.0048 26.0538C28.0048 26.0538 28.8454 25.3806 29.0966 25.6318L29.0966 25.6318ZM27.9991 39.857C28.8844 39.7098 30.2121 40.448 31.5396 40.3001C32.8681 40.1529 32.3413 39.8985 32.3413 39.8985C32.3413 39.8985 31.1738 39.6879 30.4315 38.5205C29.6892 37.353 29.7949 33.7457 30.1128 33.0029C30.4315 32.2606 31.386 31.8363 31.386 31.8363C31.386 31.8363 32.6599 32.155 33.0835 32.0484L34.5689 32.3664C34.5689 32.3664 34.4632 33.0029 34.9933 33.2159C35.5242 33.4273 36.4786 33.6396 37.1152 33.4273C37.7519 33.2159 37.4339 32.6851 37.964 32.6851C38.4949 32.6851 38.8128 33.5339 39.3437 33.8517C39.8737 34.1704 39.7681 33.746 40.4046 34.1704C41.0412 34.5947 41.6769 34.9135 42.2079 34.4891C42.7379 34.0647 42.5265 33.8517 42.7379 33.4273C42.9501 33.0029 43.6924 32.6851 43.5875 32.2607C43.481 31.8363 43.0566 31.5176 43.2688 30.9875C43.481 30.4575 44.0111 29.7136 44.0111 29.7136C44.0111 29.7136 44.9656 29.7136 45.3907 29.5013C45.8143 29.29 46.133 29.3957 45.7086 28.8656C45.2851 28.3355 45.072 27.8046 45.072 27.8046C45.072 27.8046 45.8143 27.2745 45.7086 26.8501C45.6029 26.4257 45.7086 26.5314 46.133 26.1078C46.5582 25.6826 46.0273 25.4696 46.0273 24.8338C46.0273 24.1981 46.133 23.8794 46.4517 23.6672C46.7688 23.455 46.5582 23.0306 47.194 22.9249C47.8306 22.8184 47.7696 22.4827 47.9818 22.0575C48.194 21.6331 47.6176 21.0143 47.0882 20.6965C46.5583 20.3778 47.0883 19.9534 46.346 19.8477C45.6029 19.7412 45.3907 20.4843 45.3907 19.8477C45.3907 19.2111 45.6029 18.5746 45.6029 18.5746C45.6029 18.5746 45.7086 18.3623 45.072 17.8315C44.4363 17.3014 44.542 17.1948 44.0111 17.1948C43.481 17.1948 42.8445 17.3014 42.5265 16.7713C42.2079 16.2404 43.1632 16.3461 42.7379 15.816C42.3144 15.2859 41.9957 15.3916 41.6769 14.8615C41.3591 14.3307 41.6769 13.9063 41.1469 13.6941C40.616 13.4819 40.616 13.4819 39.8737 13.6941C39.1314 13.9063 38.8128 14.1184 38.9193 13.5884C39.0249 13.0575 39.2371 13.1632 39.2371 12.6331C39.2371 12.103 39.6615 11.9965 39.4494 11.36C39.2371 10.7233 39.0249 10.6176 39.0249 10.1932C39.0249 9.76884 38.9193 10.0868 38.6006 9.66324C38.2827 9.23888 38.8128 8.92009 38.1762 8.70792C37.5396 8.49569 36.7974 8.92008 36.5851 8.49569C36.373 8.07133 36.373 7.85913 35.9486 7.54044C35.5242 7.2225 35.312 7.54044 34.8876 7.00954C34.4632 6.48031 34.251 6.79815 33.9323 6.37375C33.6144 5.94935 34.0388 6.1616 33.6144 5.63149C33.19 5.09984 32.9778 5.3128 32.4469 4.9941C31.9169 4.67617 31.9169 4.14531 31.2803 4.25177C30.6437 4.35747 30.538 4.35747 30.538 4.8884C30.538 5.41846 30.0071 5.73719 30.6437 5.94932C31.2803 6.16156 31.7038 6.58595 31.1737 6.58595C30.6437 6.58595 30.6437 6.48024 30.2185 6.26725C29.7949 6.05502 29.4762 5.73719 28.9453 5.52576C28.4153 5.31277 28.7339 6.16155 27.9917 5.84369C27.2486 5.52576 27.673 5.41847 27.1421 4.99407C26.612 4.57054 26.7185 4.46318 26.0819 4.25175C25.4453 4.03959 25.4453 3.82663 24.8088 4.14529C24.1722 4.46315 24.4909 4.35745 23.7478 4.57052C23.0047 4.78184 22.6868 4.67614 22.899 5.20708C23.1112 5.73714 23.2169 5.94934 22.6868 6.26727C22.1567 6.58596 22.4746 7.22252 22.0494 7.00953C21.6258 6.79813 21.3071 7.11607 21.0957 6.4803C20.8827 5.84374 21.2575 5.78679 20.9892 5.52581C20.5925 5.13722 20.4583 6.05504 19.7161 6.1616C18.9738 6.2673 19.3974 6.37375 18.9738 6.79816C18.5494 7.22252 20.0339 7.32905 18.7616 7.85918C17.4884 8.38924 17.5941 7.85918 17.1697 8.38924C16.7454 8.92006 16.9575 9.0258 16.3209 9.23886C15.6843 9.45018 15.8966 9.13149 15.26 9.76885C14.6234 10.4047 14.3055 10.2989 14.3055 10.9356C14.3055 11.5721 14.7299 11.5721 14.199 11.9965C13.6689 12.4209 13.7746 12.7388 14.0933 13.2696C14.4112 13.8005 15.1535 14.6493 14.3055 14.3307C13.4567 14.0127 13.2445 13.694 13.1388 14.1184C13.0323 14.5428 12.6079 14.4371 12.3958 15.1794C12.1836 15.9225 12.3958 15.3916 12.5014 16.1347C12.608 16.877 13.1892 16.8047 11.9104 17.0079C11.2998 17.1046 11.6527 17.4079 10.9104 17.6193C10.1673 17.8315 9.74292 17.6193 9.63725 18.1502C9.53075 18.681 9.95513 18.999 9.42506 19.3168C8.89416 19.6355 9.0007 19.7412 8.68276 20.3778C8.36407 21.0144 7.83397 21.3323 7.83397 21.9697C7.83397 22.6062 8.46977 22.7127 7.93966 23.3493C7.4096 23.9851 7.4096 23.9851 7.83397 24.6217C8.25754 25.2582 8.78846 25.3647 8.78846 26.0021C8.78846 26.6379 8.57627 26.9558 9.00066 27.4867C9.42502 28.0167 10.486 28.2289 9.84945 28.759C9.21285 29.2899 9.53075 29.0777 8.89416 29.5012C8.25757 29.9265 7.72751 29.6086 8.15187 30.3509C8.57623 31.0939 9.00066 30.6688 9.00066 31.5176C9.00066 32.3664 9.31935 32.3664 10.0616 32.685C10.8047 33.0029 11.0161 34.0646 11.547 33.7459C12.0771 33.4272 12.0771 33.2159 12.5015 33.9582C12.9258 34.7013 13.2446 35.3378 13.5625 34.7013C13.8812 34.0646 14.0934 34.1703 14.517 33.9582C14.9421 33.7459 14.517 33.5338 15.26 33.5338C16.0023 33.5338 16.0023 33.9582 16.5332 33.6395C17.0641 33.3216 16.6397 32.8972 17.2763 33.0029C17.9121 33.1094 18.0186 33.1094 18.1251 33.5338C18.2308 33.9581 18.1307 34.1768 18.7674 34.1768C19.404 34.1768 19.5861 33.2972 19.6918 33.828C19.7983 34.3573 20.3284 34.8882 20.7528 34.7825C21.1771 34.6768 21.6015 35.1012 21.495 34.3573C21.3893 33.6159 21.8381 33.9582 21.9438 33.4272C22.0495 32.8972 21.9372 32.5842 22.2519 32.2078C22.6185 31.7679 23.6421 31.7305 23.6421 31.7305C23.6421 31.7305 24.8088 31.5175 25.6576 32.5793C26.5064 33.6395 26.6039 34.6646 26.6121 36.0801C26.6177 37.0012 26.6909 37.611 26.2381 38.4142C25.8145 39.1655 24.5706 39.8679 24.5706 39.8679C24.5706 39.8679 24.1015 40.2857 24.9015 40.3004C25.6161 40.3126 27.5819 39.9272 27.999 39.8572L27.9991 39.857ZM23.4724 30.685C23.3122 30.5882 22.9692 30.9639 22.47 30.8272C22.0261 30.7061 21.9065 30.6045 21.7293 30.8475C21.283 31.463 21.0464 30.9265 20.8691 30.8475C20.5862 30.6126 21.1951 30.2606 21.7772 29.9695C22.2008 29.7573 21.9228 28.9321 22.4366 28.9321C22.6301 28.9321 22.5878 29.4126 23.0122 29.2256C23.4082 29.05 23.2098 29.8191 23.2098 29.8191L23.3651 29.9329C23.5122 29.8394 23.6269 29.8077 23.7545 29.8996C23.9114 30.0134 24.0667 30.441 24.4602 30.7281C24.5651 30.8012 24.674 30.8639 24.787 30.9159C24.9073 30.9704 24.0154 31.011 23.4724 30.685L23.4724 30.685ZM25.9813 28.4297L26.2391 29.2589C26.3797 29.624 26.4358 29.9907 26.0504 30.3622C25.6407 30.7581 25.1049 30.7467 24.722 30.4687C24.1196 30.0313 24.3838 29.1102 24.857 28.4874C24.857 28.4874 24.5692 27.7809 24.6147 27.6232C24.6667 27.4378 24.944 26.7086 25.1797 27.1516C25.4163 27.5963 25.7806 27.7809 25.9814 28.4297L25.9813 28.4297ZM30.6007 27.7224C30.4536 27.8679 30.3373 27.8297 30.1503 28.2118C29.9642 28.5947 29.7349 29.1354 29.7349 29.1354C29.7349 29.1354 30.4073 28.9557 30.6731 28.7143C30.8536 28.5493 31.2007 28.2542 31.3926 28.1614C31.6016 28.0598 31.7666 27.768 31.5365 27.642C31.3064 27.5135 31.2642 27.8591 31.0016 27.7932C30.8601 27.7582 30.7268 27.5981 30.6008 27.7224L30.6007 27.7224ZM32.8057 30.6298C33.9244 30.7631 34.0934 31.2948 34.6244 31.1883C35.1544 31.0818 36.317 30.5883 35.6854 30.6574C34.73 30.7631 34.0195 29.7957 34.0195 29.7957C33.5561 30.4656 32.8057 30.6298 32.8057 30.6298L32.8057 30.6298ZM30.765 30.8615C31.4155 30.3055 32.4707 29.9842 32.8528 29.9842C33.2349 29.9842 34.6154 29.1469 33.3626 29.1005C32.8853 29.0827 32.9764 28.2127 32.4894 28.2086C32.0154 28.2052 31.9487 28.716 31.5902 29.0266C31.2617 29.3095 31.0536 29.3728 30.7243 29.7241C30.439 30.0274 30.4187 30.4079 30.4723 30.5607C30.6186 30.9736 30.6219 30.4957 30.765 30.8615L30.765 30.8615ZM0 22.1518C0 9.91684 12.4364 0 27.7773 0C43.1194 0 55.5554 9.91719 55.5554 22.1518C55.5554 34.3865 43.1197 44.303 27.7773 44.303C12.4371 44.303 0 34.3868 0 22.1518Z" fill="#388067"/>
<path d="M75.9367 24.8436C75.5505 25.8168 74.9815 26.5656 74.2448 27.0689C73.5066 27.5688 72.6465 27.8233 71.6863 27.8233C70.236 27.8233 69.0197 27.2738 68.0693 26.1909C67.1132 25.0974 66.6287 23.425 66.6287 21.221C66.6287 20.0918 66.8173 19.0137 67.1888 18.017C67.5563 17.0454 68.132 16.2926 68.8978 15.7813C69.6718 15.2707 70.5621 15.0122 71.5425 15.0122C72.4384 15.0122 73.253 15.2251 73.9636 15.6447C74.679 16.0674 75.288 16.7788 75.7742 17.7593C76.2668 18.7454 76.5173 20.0138 76.5173 21.5282C76.5173 22.7347 76.3213 23.8501 75.9367 24.8436L75.9367 24.8436ZM77.0952 15.6575C75.8229 14.3631 74.0928 13.707 71.9531 13.707C69.6548 13.707 67.7493 14.4461 66.2888 15.9038C64.8238 17.3583 64.0807 19.2461 64.0807 21.5137C64.0807 23.9235 64.727 25.8144 66.0018 27.1351C67.2774 28.4578 69.0294 29.1278 71.2097 29.1278C73.5325 29.1278 75.434 28.3919 76.8619 26.9399C78.2903 25.4863 79.0139 23.4871 79.0139 20.9968C79.0139 18.748 78.3683 16.9514 77.0952 15.6578" fill="black"/>
<path d="M86.4757 22.8363C86.475 22.8363 84.9562 22.8054 84.8522 22.803C84.8936 22.7055 85.8001 20.5477 85.8001 20.5477C85.8001 20.5477 86.9269 17.8648 86.9927 17.7087C87.0562 17.8599 89.1033 22.7021 89.1456 22.8027C89.0383 22.8034 86.4773 22.8361 86.4757 22.8361V22.8363ZM95.0466 27.5797H95.0459C93.8882 27.2431 93.6988 27.1537 93.6679 27.135C93.6679 27.1325 93.3899 26.8065 93.3899 26.8065C93.3899 26.803 91.1321 21.8816 91.1321 21.8816C89.8663 19.0531 88.7809 16.4817 87.907 14.2383L87.8672 14.1318L86.9955 14.1074C86.9614 14.1302 84.2411 20.4377 84.2411 20.4377C82.7403 23.9018 81.7948 25.9784 81.4314 26.6109C81.2704 26.8792 81.1184 27.0687 80.9785 27.1735C80.7858 27.3166 80.4037 27.4532 79.8428 27.5792C79.8434 27.5792 79.7143 27.6052 79.7143 27.6052L79.6842 28.524V28.5629L82.107 28.4459L84.6102 28.5581C84.6501 28.5215 84.6534 28.3491 84.6534 28.3491V27.6524C84.6265 27.6166 84.2037 27.4922 84.2037 27.4922C83.2948 27.2987 83.1509 27.2337 83.129 27.219C83.1206 27.2076 83.1144 27.193 83.1144 27.1662C83.1144 27.0914 83.1615 26.9272 83.3346 26.5182C83.3346 26.5182 84.3086 24.1703 84.3103 24.167C84.311 24.1897 86.8298 24.1729 86.8298 24.1729C86.8298 24.1729 89.7208 24.1899 89.7216 24.1899C89.7209 24.1899 89.7209 24.1899 89.7209 24.1906C89.7209 24.2476 90.6348 26.4296 90.6348 26.4296C90.8039 26.8385 90.8226 26.9955 90.8226 27.0443C90.8226 27.0841 90.8104 27.1467 90.708 27.224C90.6819 27.2426 90.4965 27.3492 89.4186 27.5752L89.286 27.6052L89.2559 28.5208C89.295 28.5581 92.3803 28.4459 92.3803 28.4459L95.1486 28.5581C95.1877 28.5215 95.1909 28.3492 95.1909 28.3492V27.6524C95.1641 27.6167 95.047 27.5801 95.047 27.5801" fill="black"/>
<path d="M97.1148 14.5437V15.2518C97.1449 15.2885 97.7165 15.4063 97.7165 15.4063C98.7286 15.577 99.1035 15.7169 99.24 15.8039C99.2197 15.7721 99.2944 15.8835 99.2944 15.8835C99.292 15.8818 99.3197 15.9852 99.3197 16.6242C99.3197 16.6249 99.3684 21.9175 99.3684 21.9175L99.2937 26.5604C99.2774 27.036 99.1952 27.1287 99.1863 27.1376C99.1587 27.1629 98.953 27.3019 97.753 27.4775C97.7589 27.4775 97.1416 27.6051 97.1416 27.6051C97.1115 27.6426 97.1148 27.7759 97.1148 27.7759V28.5206C97.1539 28.558 100.624 28.4458 100.624 28.4458L103.756 28.558C103.795 28.5214 103.801 28.349 103.801 28.349V27.6417C103.771 27.6051 103.637 27.575 103.637 27.575C103.193 27.4897 102.067 27.2595 101.897 27.2043C101.731 27.1442 101.67 27.0839 101.649 27.0433C101.633 27.0116 101.596 26.888 101.596 26.4441C101.596 26.4441 101.575 22.3953 101.572 21.9338C101.687 22.0443 102.658 22.9785 102.658 22.9785C104.906 25.1037 106.339 26.51 106.805 27.0449C106.805 27.0456 106.94 27.2538 106.94 27.2538L106.888 27.3108C106.866 27.3254 106.727 27.3937 105.919 27.579L105.792 27.6075L105.762 28.5205C105.801 28.5579 109.354 28.4457 109.354 28.4457L112.605 28.5579C112.644 28.5213 112.646 28.3489 112.646 28.3489V27.6416C112.616 27.605 112.484 27.579 112.484 27.579C111.314 27.3213 110.607 27.1465 110.381 27.0587C110.376 27.0537 110.282 26.9993 109.77 26.6985C109.775 26.702 106.661 23.8384 106.661 23.8384C105.305 22.5652 104.286 21.5742 103.634 20.8937C103.671 20.9099 104.699 20.001 104.699 20.001C104.701 19.9992 107.347 17.5848 107.347 17.5848C107.348 17.5848 107.396 17.54 109.065 15.9742C109.065 15.9742 109.055 15.9735 109.048 15.9725C109.087 15.9627 109.178 15.9131 109.485 15.7383C109.588 15.696 109.938 15.5822 111.064 15.314L111.192 15.2855L111.222 14.3725C111.183 14.335 108.096 14.444 108.096 14.444L105.551 14.335C105.512 14.3717 105.506 14.5423 105.506 14.5423V15.2424C105.534 15.279 105.881 15.3733 105.881 15.3733C106.663 15.5367 106.815 15.6147 106.844 15.6351C106.846 15.6448 106.847 15.6554 106.847 15.6684C106.847 15.7716 106.761 15.9814 106.275 16.483C104.751 18.0562 103.17 19.5179 101.576 20.8342C101.579 20.674 101.621 17.822 101.621 17.822C101.645 16.1667 101.675 15.9195 101.68 15.887C101.649 15.9179 101.81 15.7188 101.81 15.7188C101.81 15.7212 101.955 15.648 103.217 15.4025C103.209 15.4025 103.77 15.2878 103.77 15.2878L103.801 14.3724C103.762 14.335 100.917 14.435 100.917 14.435C100.916 14.435 100.311 14.4439 100.311 14.4439L97.156 14.335C97.1178 14.3716 97.1145 14.5431 97.1145 14.5431" fill="black"/>
<path d="M114.062 14.5293L113.712 18.5331L113.934 18.5355H114.819C114.856 18.5062 114.885 18.3802 114.885 18.3802C115.106 17.4631 115.279 16.8395 115.383 16.5794C115.505 16.2697 115.644 16.0624 115.786 15.9778C115.835 15.9428 115.98 15.8875 116.411 15.8875L116.836 15.8791H118.986C118.974 15.8798 118.97 16.3628 118.97 17.0083C118.97 18.3149 118.987 20.288 118.987 20.288L118.946 24.8991C118.922 26.7633 118.888 26.978 118.882 27.0031C118.88 27.0031 118.807 27.1324 118.807 27.1324C118.791 27.1408 118.596 27.2512 117.373 27.4561C117.37 27.4567 116.709 27.6057 116.709 27.6057C116.688 27.6332 116.686 27.7088 116.686 27.7495C116.686 27.7649 116.687 28.5187 116.687 28.5187C116.725 28.556 119.829 28.4438 119.829 28.4438L123.433 28.556C123.472 28.5194 123.478 28.3471 123.478 28.3471V27.6397C123.449 27.6031 122.888 27.4853 122.888 27.4853C121.581 27.2292 121.393 27.1243 121.369 27.1056C121.358 27.0959 121.31 27.0406 121.296 26.8519C121.246 26.0121 121.221 24.4032 121.221 22.071L121.296 15.8269L123.257 15.8643C124.17 15.8643 124.411 15.9391 124.471 15.9716C124.6 16.035 124.7 16.1464 124.777 16.3131C124.825 16.4285 124.966 16.8521 125.36 18.3805L125.392 18.5065L126.463 18.535H126.503L126.184 14.3734L125.985 14.3384C125.984 14.3384 120.419 14.4425 120.419 14.4425L114.113 14.3359C114.075 14.3701 114.061 14.5287 114.061 14.5287" fill="black"/>
<path d="M135.077 20.9826C135.073 20.9826 133.692 20.8874 133.691 20.8874C133.726 20.8867 133.781 15.838 133.781 15.8324C133.784 15.8657 135.602 15.7617 135.602 15.7617C136.49 15.7617 137.177 15.9828 137.637 16.4177C138.094 16.8511 138.324 17.4536 138.324 18.208C138.324 19.0812 138.061 19.7682 137.541 20.2487C137.023 20.7356 136.193 20.9828 135.077 20.9828L135.077 20.9826ZM143.604 27.5813H143.605C142.783 27.4 142.162 27.23 141.807 27.0911C141.571 27.0024 141.379 26.8959 141.236 26.7757C141.181 26.7268 141.012 26.5439 140.511 25.883C140.511 25.883 137.623 22.1262 137.45 21.9009C138.09 21.705 138.574 21.5001 138.913 21.2758C139.482 20.8929 139.922 20.418 140.221 19.8644C140.524 19.3067 140.676 18.6595 140.676 17.9416C140.676 16.8628 140.337 15.9904 139.666 15.3473C138.989 14.7164 137.983 14.3969 136.676 14.3969C136.675 14.3969 135.247 14.4295 135.247 14.4295L133.591 14.4465L129.31 14.3408C129.271 14.3774 129.269 14.5457 129.269 14.5457V15.2538C129.299 15.2905 129.876 15.4116 129.876 15.4116C130.56 15.5229 131.033 15.6546 131.324 15.8148C131.324 15.819 131.42 15.9359 131.42 15.9359C131.422 15.9514 131.448 16.1222 131.457 17.075L131.497 21.6504C131.474 25.8656 131.455 26.5413 131.448 26.6354C131.435 26.8639 131.383 27.0298 131.3 27.1037C131.267 27.1355 131.067 27.2541 129.848 27.4907C129.848 27.4907 129.298 27.6069 129.298 27.6069L129.269 28.5224C129.308 28.5598 132.687 28.4476 132.687 28.4476L135.937 28.5598C135.976 28.5232 135.981 28.3508 135.981 28.3508V27.6435C135.951 27.6069 135.274 27.4598 135.274 27.4598C134.243 27.2703 133.975 27.1443 133.906 27.0858C133.848 27.033 133.812 26.9313 133.8 26.7931C133.8 26.7881 133.734 22.3647 133.73 22.1371C133.801 22.1429 135.173 22.2412 135.173 22.2412C135.173 22.2639 137.234 25.0924 137.234 25.0924C137.235 25.0931 137.43 25.3452 137.43 25.3452L138.327 26.6363L139.56 28.5363C139.592 28.5534 139.704 28.5509 139.704 28.5509C139.705 28.5509 141.334 28.4444 141.334 28.4444L143.721 28.5631C143.761 28.5258 143.764 28.3509 143.764 28.3509V27.6436C143.734 27.607 143.604 27.581 143.604 27.581" fill="black"/>
<path d="M145.495 14.3708V15.2505C145.524 15.2871 146.69 15.5481 146.69 15.5481C147.355 15.7017 147.492 15.7594 147.518 15.7741C147.518 15.7765 147.621 15.8871 147.621 15.8871C147.621 15.8938 147.674 16.0586 147.692 17.2757L147.713 21.3934L147.701 23.9885L147.646 26.2747V26.4535C147.646 26.9161 147.575 27.0584 147.545 27.0974C147.545 27.0974 147.488 27.1535 147.19 27.2373C147.178 27.2397 146.971 27.2845 145.629 27.5803L145.5 27.6064L145.47 28.5186C145.508 28.556 150.188 28.447 150.188 28.447L156.773 28.556C156.809 28.5315 156.852 28.4137 156.852 28.4137C156.852 28.413 158.146 24.5189 158.146 24.5189L157.867 24.5122H157.12C157.088 24.5309 156.804 25.0138 156.804 25.0138C156.287 25.939 155.953 26.4715 155.784 26.6422C155.621 26.8154 155.432 26.9382 155.207 27.0153C155.166 27.0284 154.969 27.0707 154.214 27.0707C154.214 27.0707 153.849 27.0804 153.849 27.0804H149.91C149.92 27.0797 149.924 26.6348 149.924 26.0031C149.924 24.4365 149.901 21.7156 149.901 21.7156L152.385 21.753C153.481 21.753 153.721 21.8213 153.768 21.8416C153.882 21.8904 153.958 21.9644 154.002 22.0692C154.015 22.1002 154.088 22.3254 154.345 23.6156L154.37 23.7473L155.367 23.7774C155.404 23.7383 155.295 21.1034 155.295 21.1034L155.404 18.4571C155.367 18.4181 155.191 18.4148 155.191 18.4148H154.415C154.379 18.4433 154.257 18.9115 154.257 18.9115C154.065 19.8286 153.955 20.0839 153.908 20.1547C153.831 20.2661 153.736 20.3384 153.618 20.3758C153.547 20.3945 153.25 20.4392 152.051 20.4392H149.845C149.881 20.4357 149.906 18.7367 149.906 18.7367L149.973 15.7766L153.744 15.8132C154.621 15.8132 154.971 15.875 155.11 15.9262C155.223 15.9717 155.327 16.0766 155.411 16.2278C155.568 16.5026 155.778 17.0742 156.036 17.927L156.071 18.0441L157.096 18.0709H157.138L157.11 17.8384C156.967 16.7653 156.888 15.6563 156.876 14.5433L156.874 14.3766C156.836 14.34 150.062 14.4466 150.062 14.4466C148.392 14.4466 146.927 14.4108 145.71 14.3424C145.71 14.3424 145.495 14.3311 145.495 14.3311V14.3709L145.495 14.3708Z" fill="black"/>
<path d="M160.349 14.3708V15.2505C160.378 15.2871 161.544 15.5481 161.544 15.5481C162.238 15.7082 162.356 15.7635 162.372 15.7733C162.372 15.7757 162.476 15.8847 162.476 15.8847C162.479 15.9001 162.532 16.096 162.549 17.2757L162.566 21.3933L162.557 23.9892L162.503 26.2747V26.4535C162.503 26.9185 162.431 27.0584 162.401 27.0966C162.401 27.0942 162.064 27.2308 162.047 27.2373C162.039 27.2373 161.844 27.2812 160.484 27.5803C160.485 27.5803 160.353 27.6064 160.353 27.6064L160.323 28.5186C160.361 28.5559 165.043 28.447 165.043 28.447L171.63 28.5559C171.667 28.5315 171.708 28.4137 171.708 28.4137C171.708 28.413 173 24.5189 173 24.5189L172.722 24.5122H171.978C171.946 24.5308 171.661 25.0105 171.661 25.0105C171.03 26.1406 170.757 26.5219 170.637 26.643C170.471 26.8187 170.283 26.9406 170.063 27.0153C170.023 27.0284 169.824 27.0707 169.07 27.0707C169.069 27.0707 168.703 27.0804 168.703 27.0804H164.766C164.776 27.0797 164.78 26.6348 164.78 26.0031C164.78 24.4365 164.756 21.7156 164.756 21.7156L167.239 21.7531C168.334 21.7531 168.578 21.8213 168.627 21.8416C168.739 21.8904 168.813 21.9636 168.861 22.0725C168.871 22.0985 168.939 22.3026 169.2 23.6156L169.227 23.7473L170.223 23.7774C170.26 23.7383 170.149 21.1034 170.149 21.1034L170.26 18.4571C170.224 18.4181 170.049 18.4148 170.049 18.4148H169.273C169.236 18.4425 169.115 18.9018 169.115 18.9018C168.916 19.8603 168.801 20.0969 168.761 20.1538C168.688 20.2652 168.594 20.3376 168.473 20.3758C168.402 20.3945 168.102 20.4392 166.912 20.4392H164.699C164.735 20.4357 164.764 18.7367 164.764 18.7367L164.826 15.7766L168.597 15.8132C169.482 15.8132 169.826 15.875 169.96 15.9262C170.078 15.9709 170.178 16.0692 170.267 16.2278C170.427 16.5091 170.631 17.0644 170.891 17.927L170.925 18.0433L171.952 18.071H171.995L171.964 17.8384C171.819 16.7539 171.742 15.6457 171.734 14.5457L171.731 14.3775C171.693 14.34 164.917 14.4466 164.917 14.4466C163.249 14.4466 161.784 14.4108 160.564 14.3424L160.348 14.3311V14.3709L160.349 14.3708Z" fill="black"/>
</mask>
<g mask="url(#mask0)">
<rect x="-37.3524" y="-49.1484" width="259.501" height="117.955" fill="white"/>
</g>
</svg>
